HIERARCHY
ROOT Hips
{
	OFFSET -3.958830 18.904000 13.208200
	CHANNELS 6 Xposition Yposition Zposition Zrotation Yrotation Xrotation 
	JOINT LHipJoint
	{
		OFFSET 0.000000 0.000000 0.000000
		CHANNELS 3 Zrotation Yrotation Xrotation
		JOINT LeftUpLeg
		{
			OFFSET 1.800000 -1.400000 0.085000
			CHANNELS 3 Zrotation Yrotation Xrotation
			JOINT LeftLeg
			{
				OFFSET 2.215000 -6.000000 0.000000
				CHANNELS 3 Zrotation Yrotation Xrotation
				JOINT LeftFoot
				{
					OFFSET 2.500000 -6.900000 0.000000
					CHANNELS 3 Zrotation Yrotation Xrotation
					JOINT LeftToeBase
					{
						OFFSET 0.200000 -0.500000 1.950000
						CHANNELS 3 Zrotation Yrotation Xrotation
						End Site
						{
							OFFSET 0.000000 0.000000 0.000000
						}
					}
				}
			}
		}
	}
	JOINT RHipJoint
	{
		OFFSET 0.000000 0.000000 0.000000
		CHANNELS 3 Zrotation Yrotation Xrotation
		JOINT RightUpLeg
		{
			OFFSET -1.800000 -1.400000 0.085000
			CHANNELS 3 Zrotation Yrotation Xrotation
			JOINT RightLeg
			{
				OFFSET -2.215000 -6.000000 0.000000
				CHANNELS 3 Zrotation Yrotation Xrotation
				JOINT RightFoot
				{
					OFFSET -2.500000 -6.900000 0.000000
					CHANNELS 3 Zrotation Yrotation Xrotation
					JOINT RightToeBase
					{
						OFFSET -0.200000 -0.500000 1.950000
						CHANNELS 3 Zrotation Yrotation Xrotation
						End Site
						{
							OFFSET 0.000000 0.000000 0.000000
						}
					}
				}
			}
		}
	}
	JOINT LowerBack
	{
		OFFSET 0.000000 0.000000 0.000000
		CHANNELS 3 Zrotation Yrotation Xrotation
		JOINT Spine
		{
			OFFSET -0.087000 1.940000 -0.288900
			CHANNELS 3 Zrotation Yrotation Xrotation
			JOINT Spine1
			{
				OFFSET 0.000000 1.950000 0.060000
				CHANNELS 3 Zrotation Yrotation Xrotation
				JOINT Neck
				{
					OFFSET 0.000000 0.000000 0.000000
					CHANNELS 3 Zrotation Yrotation Xrotation
					JOINT Neck1
					{
						OFFSET 0.000000 1.600000 0.340000
						CHANNELS 3 Zrotation Yrotation Xrotation
						JOINT Head
						{
							OFFSET 0.000000 1.667000 -0.240000
							CHANNELS 3 Zrotation Yrotation Xrotation
							End Site
							{
								OFFSET 0.000000 0.000000 0.000000
							}
						}
					}
				}
				JOINT LeftShoulder
				{
					OFFSET 0.000000 0.000000 0.000000
					CHANNELS 3 Zrotation Yrotation Xrotation
					JOINT LeftArm
					{
						OFFSET 2.700000 1.550000 -0.730000
						CHANNELS 3 Zrotation Yrotation Xrotation
						JOINT LeftForeArm
						{
							OFFSET 5.450000 0.000000 0.000000
							CHANNELS 3 Zrotation Yrotation Xrotation
							JOINT LeftHand
							{
								OFFSET 3.450000 0.000000 0.000000
								CHANNELS 3 Zrotation Yrotation Xrotation
								JOINT LeftHandIndex1
								{
									OFFSET 0.750000 0.000000 0.000000
									CHANNELS 3 Zrotation Yrotation Xrotation
									End Site
									{
										OFFSET 0.000000 0.000000 0.000000
									}
								}
							}
						}
					}
				}
				JOINT RightShoulder
				{
					OFFSET 0.000000 0.000000 0.000000
					CHANNELS 3 Zrotation Yrotation Xrotation
					JOINT RightArm
					{
						OFFSET -2.700000 1.550000 -0.730000
						CHANNELS 3 Zrotation Yrotation Xrotation
						JOINT RightForeArm
						{
							OFFSET -5.450000 0.000000 0.000000
							CHANNELS 3 Zrotation Yrotation Xrotation
							JOINT RightHand
							{
								OFFSET -3.450000 0.000000 0.000000
								CHANNELS 3 Zrotation Yrotation Xrotation
								JOINT RightHandIndex1
								{
									OFFSET -0.750000 0.000000 0.000000
									CHANNELS 3 Zrotation Yrotation Xrotation
									End Site
									{
										OFFSET 0.000000 0.000000 0.000000
									}
								}
							}
						}
					}
				}
			}
		}
	}
}
MOTION
Frames: 14
Frame Time: 0.016667
-1.002300 16.305430 -0.228830 -5.322595 -5.244621 3.721752 -16.260573 10.118766 7.792434 44.026377 -5.812005 -4.445879 -42.076535 3.037390 -16.759900 0.909840 10.778790 1.514436 0.233290 -0.224560 -0.203560 18.022141 -7.669812 0.477973 -21.374101 -1.582223 -10.922702 -2.773760 -2.828262 3.735748 0.215510 -4.105196 3.384279 0.268860 1.478880 0.405920 -1.942478 -4.999311 -8.391645 7.303450 -3.453663 1.096811 -3.113647 -2.663851 20.529904 -2.990347 -0.812162 -13.296173 -4.220923 0.218474 24.604308 1.570470 -1.985690 11.996230 11.643557 2.721924 15.186186 -109.184866 -79.554434 100.846323 109.680217 -40.442619 -60.932903 -5.148197 2.519754 -0.239340 1.113740 -0.992910 0.578540 -7.297162 -7.974546 1.484646 34.531162 -19.311609 -14.019800 120.218061 84.099889 122.360928 0.226022 0.016772 -0.493700 0.412640 0.162060 0.026860 
-0.839910 16.313930 -0.223260 -5.847359 -3.302113 1.484953 -16.425593 10.332081 8.042534 44.387192 -7.343338 -2.799261 -42.803313 2.025882 -17.860560 1.046808 10.785740 1.512192 0.179810 -0.281330 -0.161330 17.883715 -7.525357 0.309725 -20.646707 -2.119750 -7.211689 -3.977898 -2.903825 4.095380 0.150191 -4.183468 3.406093 0.174140 1.373290 0.381160 -1.470814 -5.901029 -8.526081 4.517863 -4.234748 2.884207 -0.495355 -3.812632 22.406568 -3.396793 0.650911 -13.635695 -2.595344 -1.564240 25.903832 0.523710 -1.044630 12.187880 11.816298 1.645067 16.300263 -106.274450 -81.905219 99.250201 113.256285 -43.192313 -66.542672 -5.123946 2.321711 -0.191630 1.054950 -0.920250 0.531580 -7.055267 -9.017835 1.923842 42.065266 -18.285761 -12.360901 -87.792088 87.382510 -74.784531 -0.354656 6.347076 -0.469270 0.361170 0.135650 -0.003940 
-0.699320 16.338120 -0.243010 -5.889825 -0.360340 -0.949380 -16.615872 10.523309 8.415647 45.220640 -9.099167 -2.744449 -44.745930 1.017948 -18.093956 1.205068 10.739815 1.506082 0.194790 -0.262140 -0.067330 17.741614 -7.680088 -0.141084 -19.480386 -3.154004 -4.982221 -6.711910 -3.109181 9.085686 0.096463 -4.176476 3.429923 0.101870 1.228150 0.384330 -0.938060 -6.437909 -8.536779 0.102420 -4.602288 4.748634 4.104323 -4.690245 24.337710 -4.666235 3.265072 -13.803079 0.888893 -3.534148 27.995827 -0.537860 0.481740 11.971160 11.825261 -0.519169 17.131732 -100.154050 -84.126308 92.338408 114.392397 -46.722851 -71.429781 -5.070283 2.137606 -0.152210 0.980280 -0.808020 0.508310 -5.431790 -9.418479 2.106515 48.051767 -17.793164 -21.046248 115.757908 88.665817 123.833473 0.216406 0.623574 -0.395290 0.275660 0.055520 -0.025920 
-0.537350 16.387370 -0.256050 -6.592174 0.643758 -4.231087 -16.686200 10.838800 8.507499 45.511296 -9.631649 -1.892032 -46.027024 1.385600 -16.535728 1.191406 10.886118 1.421123 0.188660 -0.307370 0.026030 17.672665 -7.975762 -0.470700 -17.606243 -4.333766 -3.674314 -10.460617 -3.112143 15.398251 0.026038 -4.382559 3.332181 0.059270 1.121550 0.389710 -0.714798 -6.691758 -8.502186 -1.030493 -4.040798 8.313300 6.169524 -4.306818 25.885939 -5.360785 4.952660 -13.667603 3.151234 -5.994433 28.474743 -2.171960 1.342820 10.445410 11.781158 -1.055480 17.663239 -91.185570 -85.798867 81.641423 114.034016 -51.526092 -77.041662 -5.062696 1.871712 -0.053070 0.928460 -0.737220 0.449140 -4.483266 -10.712914 1.877629 55.143108 -14.120296 -21.087029 -48.487791 85.818339 -40.340702 0.678941 -1.302444 -0.406910 0.245450 0.053610 -0.100810 
-0.368800 16.401410 -0.230480 -6.406149 -0.091571 -5.938812 -16.660432 11.076881 8.407570 45.175167 -9.214805 -1.070635 -48.984224 2.636932 -14.201532 1.306683 10.935943 1.364623 0.223140 -0.288650 0.099180 17.648608 -8.287478 -0.586563 -16.619277 -4.992339 -4.657394 -12.958947 -2.918694 20.031811 -0.062528 -4.565939 3.207483 0.003900 0.983990 0.423170 -0.722824 -6.547330 -8.470022 -1.429023 -3.678002 9.528363 7.335991 -3.788311 25.451080 -5.540338 5.336995 -13.486892 2.988609 -6.724836 31.013760 -2.352410 1.694750 10.481440 10.890223 -0.307321 17.334055 -85.599363 -82.553524 74.712464 114.294076 -54.688879 -83.431123 -4.892296 1.962132 -0.002520 0.836340 -0.634770 0.418110 -2.929431 -11.094189 1.786088 58.171706 -12.567716 -21.202075 -41.678304 83.966448 -34.516378 0.865377 -1.656419 -0.322710 0.146340 0.012270 -0.115100 
-0.206330 16.384520 -0.192340 -5.838782 -2.630763 -7.241583 -16.562716 11.409212 8.188034 43.967242 -8.175144 -0.016179 -51.140416 4.344279 -11.725453 1.381098 10.990918 1.349820 0.216950 -0.313600 0.146950 17.659592 -8.576207 -0.599575 -16.082761 -5.151732 -6.706961 -14.628085 -2.652495 24.253863 -0.115771 -4.737879 3.119580 -0.048490 0.910650 0.393780 -0.872948 -6.515315 -8.534846 -0.707143 -4.427531 11.220823 5.601416 -4.082946 22.884258 -5.238234 4.419342 -12.954234 0.498091 -5.037302 33.761163 -2.283520 3.033530 10.942400 9.605695 -1.448523 13.516984 -62.868209 -72.356522 54.796861 118.145210 -53.161206 -97.718739 -4.393234 2.732820 0.068820 0.762620 -0.573400 0.396790 -1.560536 -8.398172 2.835110 59.392212 -10.644179 -20.141959 -29.167511 82.988745 -25.572655 1.060069 -2.034226 -0.318160 0.134780 -0.013040 -0.138370 
-0.054420 16.384160 -0.172750 -5.215138 -4.536057 -8.785717 -16.464803 11.756755 7.850609 43.010796 -6.945767 -0.065596 -52.808571 6.992812 -7.711031 1.443904 11.088336 1.258844 0.244170 -0.293040 0.189360 17.675843 -8.789982 -0.539342 -15.345292 -5.000254 -7.901762 -15.687344 -2.419777 27.802268 -0.203741 -4.990373 2.991937 -0.088440 0.791550 0.414040 -1.022430 -6.524531 -8.458876 0.331388 -4.736435 12.811796 4.139403 -3.907633 20.692147 -4.983357 3.500811 -11.649401 -1.932743 -3.926341 35.740086 -2.666320 4.090340 10.716430 8.951998 -1.525666 10.140172 -58.701406 -62.914838 47.063675 127.789985 -58.148211 -115.911513 -4.018900 3.415433 0.118000 0.687100 -0.497180 0.360070 -1.322841 -7.338707 3.548748 60.381145 -9.644509 -18.711888 -11.028408 82.001595 -12.001237 1.187167 -2.432208 -0.250440 0.055080 -0.025430 -0.159930 
0.119210 16.394760 -0.153670 -5.637500 -6.837085 -11.145909 -16.151680 11.943389 7.333490 42.349713 -5.682030 1.167090 -53.161081 10.241652 -3.165356 1.487137 11.272734 1.198445 0.264410 -0.283750 0.230070 17.882931 -9.168572 -0.336864 -13.624019 -4.730030 -8.198857 -16.818222 -2.048457 30.960474 -0.333249 -5.309077 2.889232 -0.115250 0.729370 0.388530 -1.737777 -5.835587 -8.370830 5.230347 -5.248818 15.558603 0.424609 -3.815837 19.408754 -4.425734 2.256831 -11.172321 -4.910490 -2.481960 38.054153 -2.395020 4.572050 10.092490 8.430869 -1.981840 7.653673 -54.144897 -55.893343 38.523247 140.454578 -62.168216 -134.708913 -3.780180 3.633831 0.204720 0.610950 -0.428130 0.356390 -1.909310 -6.200661 4.274584 62.298867 -8.856368 -18.342565 4.124924 81.006176 -1.112181 1.274171 -2.563050 -0.246220 0.077560 -0.045260 -0.176630 
0.298540 16.411360 -0.139560 -5.985143 -8.244667 -12.778695 -15.800976 12.014027 6.799510 41.093142 -4.796668 1.120085 -52.263665 13.432422 1.958919 1.534644 11.321030 1.141175 0.348330 -0.179950 0.285640 18.123796 -9.612478 -0.095429 -12.021275 -4.363313 -9.110675 -17.356903 -1.856113 34.451445 -0.490917 -5.683572 2.729015 -0.103910 0.620180 0.393180 -2.550715 -4.890481 -8.242052 10.111707 -6.092502 17.844805 -2.951703 -4.106145 17.727395 -3.854509 0.911888 -10.897578 -7.770008 -0.869758 39.993012 -1.701610 4.687090 8.873840 7.936574 -1.362504 6.201207 -51.591718 -51.089896 32.636955 155.427637 -64.995757 -155.276816 -3.598236 3.692563 0.250540 0.514010 -0.332300 0.364560 -2.344811 -6.228673 4.502464 63.320256 -8.583302 -17.342472 18.701955 79.973264 9.323956 1.365933 -2.695909 -0.173320 0.038980 -0.103100 -0.166130 
0.461900 16.435380 -0.123790 -5.463708 -9.994511 -13.779443 -15.479582 12.070053 6.231885 38.508334 -3.738317 1.330803 -50.475617 15.858105 6.120796 1.494227 11.300265 1.116163 0.362260 -0.181880 0.301120 18.328329 -10.061092 0.200476 -10.688289 -3.379638 -11.088715 -18.138090 -1.407354 38.655289 -0.634472 -6.164710 2.530728 -0.122830 0.573640 0.394010 -3.262464 -3.866595 -8.097903 13.801788 -6.480949 18.980379 -6.003023 -4.092932 15.294306 -3.123166 -0.183532 -10.580791 -10.300544 1.389379 42.994159 -0.772590 4.832180 8.221110 6.499294 -0.620059 4.659665 -48.870898 -45.776366 27.423529 174.007059 -66.805208 179.526357 -3.546254 3.578618 0.328390 0.449690 -0.284000 0.339090 -2.004206 -6.121877 4.743543 63.420841 -7.844757 -15.911720 27.823163 77.999747 15.771454 1.433471 -2.650155 -0.163440 0.043250 -0.080580 -0.181720 
0.614870 16.460100 -0.088830 -5.591139 -11.321391 -13.988624 -15.221747 12.077116 5.674500 36.157422 -2.841048 0.737955 -47.360366 18.010948 10.511471 1.511312 11.189409 1.138820 0.368150 -0.150980 0.285000 18.511090 -10.400128 0.524369 -8.745779 -2.304218 -12.678909 -18.249292 -1.121001 42.182198 -0.751568 -6.589025 2.390474 -0.138120 0.542730 0.376680 -3.875617 -2.883089 -7.892706 17.714839 -6.748342 17.826651 -8.329847 -4.197086 14.603525 -2.500597 -0.753520 -11.016211 -11.785405 3.284527 46.911704 -0.014540 5.176980 9.920870 5.744320 -1.780382 4.152879 -45.523651 -40.816746 22.777699 -171.951921 -66.356278 159.468148 -3.550791 3.515334 0.320260 0.412630 -0.253580 0.347860 -2.236003 -4.286824 5.583884 63.942222 -6.487374 -15.817157 27.412230 75.755467 14.671392 1.533671 -2.558182 -0.124130 0.027870 -0.100590 -0.154520 
0.734820 16.487700 -0.073530 -5.413632 -12.206499 -14.363675 -15.036099 12.060213 5.188331 33.992684 -2.287988 -0.256964 -43.831654 19.953861 15.445982 1.508082 11.101957 1.108777 0.446980 -0.046220 0.335580 18.641477 -10.677890 0.843239 -7.181292 -1.159919 -14.155792 -17.785132 -1.112604 45.946568 -0.901507 -7.064434 2.199075 -0.114550 0.444820 0.395410 -4.316888 -1.996209 -7.743697 19.941542 -6.607801 16.813450 -9.869446 -4.059465 14.937651 -2.111831 -0.564076 -11.290061 -11.164241 4.101743 50.716084 0.125150 5.928350 10.080710 5.194550 -3.723276 3.606680 -39.831197 -37.072643 18.338766 -164.485995 -65.198721 148.193987 -3.542570 3.574903 0.319460 0.359090 -0.189960 0.346410 -2.257422 -1.935571 6.454816 65.097340 -3.992139 -15.949220 22.608261 74.234263 10.536086 1.615621 -2.493498 -0.045440 -0.046360 -0.154600 -0.147550 
0.818560 16.511860 -0.058760 -4.390488 -12.954442 -15.183101 -14.931649 12.216040 4.714693 31.136176 -1.876843 -1.053169 -39.073811 21.325956 20.798538 1.437286 11.085266 1.094121 0.485370 -0.012110 0.385590 18.686265 -10.871942 1.127060 -6.612845 -0.014136 -15.071462 -16.243226 -1.666996 49.397376 -1.018540 -7.471059 2.048415 -0.093590 0.415200 0.389820 -4.506941 -1.577316 -7.632950 19.222954 -6.257194 16.398697 -9.838140 -3.880542 15.575498 -2.281953 -0.310524 -11.589983 -10.077864 5.069614 54.165596 0.468480 7.127160 9.724780 5.528018 -5.396446 3.618558 -34.933584 -33.941966 15.384839 -159.029497 -62.371796 137.852236 -3.575859 3.584584 0.360920 0.331020 -0.154080 0.345180 -2.047173 0.255870 6.845583 65.732084 -0.241222 -15.254326 18.577679 73.160279 7.083597 1.662218 -2.379710 -0.050450 -0.029880 -0.173020 -0.166100 
0.890470 16.523610 -0.048940 -3.543669 -14.011213 -16.282855 -14.874208 12.400277 4.238120 28.331601 -1.444343 -1.225538 -33.577588 22.141120 26.266626 1.289127 11.125224 1.052114 0.526740 0.005280 0.449800 18.698045 -10.982838 1.444235 -5.943685 1.338049 -15.668297 -13.776582 -2.797690 52.943751 -1.133229 -7.931774 1.885436 -0.049540 0.381460 0.374940 -4.587071 -1.292392 -7.533888 18.092921 -5.511522 16.145320 -8.795141 -3.462707 17.042401 -2.406196 0.079801 -11.617462 -8.477656 5.178137 57.618811 -0.488150 8.324290 8.542030 6.826511 -6.135483 3.695683 -31.261897 -32.125874 13.588050 -158.528322 -61.853858 136.559277 -3.582753 3.553630 0.432750 0.316750 -0.140600 0.328710 -2.827742 1.515868 6.785579 65.344144 4.858266 -13.160018 14.436705 71.906615 3.940448 1.653693 -2.279723 -0.098760 0.000680 -0.171930 -0.225430 
